<?xml version="1.0" standalone="no"?>
<!DOCTYPE svg PUBLIC "-//W3C//DTD SVG 20010904//EN"
 "http://www.w3.org/TR/2001/REC-SVG-20010904/DTD/svg10.dtd">
<svg version="1.0" xmlns="http://www.w3.org/2000/svg"
 width="1024.000000pt" height="1024.000000pt" viewBox="0 0 1024.000000 1024.000000"
 preserveAspectRatio="xMidYMid meet">
<metadata>
Created by potrace 1.11, written by Peter Selinger 2001-2013
</metadata>
<g transform="translate(0.000000,1024.000000) scale(0.100000,-0.100000)"
fill="#000000" stroke="none">
<path d="M531 9220 c-262 -69 -456 -268 -515 -528 -15 -65 -16 -386 -14 -3599
l3 -3528 23 -69 c77 -226 233 -383 459 -464 l78 -27 4530 -2 c4915 -2 4584 -5
4717 53 207 91 360 274 412 494 14 58 15 449 13 3595 -2 3238 -4 3534 -18
3575 -38 103 -54 138 -94 200 -89 138 -215 234 -389 294 l-61 21 -4535 2
c-4454 2 -4536 2 -4609 -17z m8809 -4100 l0 -3220 -1364 0 c-1291 0 -1364 1
-1367 18 -4 14 -3 6325 0 6400 l1 22 1365 0 1365 0 0 -3220z m-3547 2641 c4
-1 6 -1194 5 -2651 l-2 -2650 -596 2 -595 3 1 1987 1 1987 -593 0 -594 0 -1
-37 c0 -20 -1 -914 -2 -1987 l-2 -1950 -1193 -1 -1193 0 2 2645 c2 1455 5
2649 7 2653 2 6 4706 4 4755 -1z"/>
<path d="M7049 7820 c-1 -3 -2 -568 -3 -1257 -1 -1106 1 -1252 14 -1255 8 -2
359 -4 780 -3 l765 0 0 242 c0 156 -3 244 -10 246 -5 2 -218 3 -472 2 -409 0
-463 1 -464 15 -1 19 -1 518 0 547 l1 23 457 2 457 3 0 240 0 240 -457 3
c-426 2 -457 3 -458 20 -1 22 -1 401 0 427 1 20 7 20 467 20 256 0 469 2 472
5 8 6 10 479 2 481 -17 4 -1550 3 -1551 -1z"/>
<path d="M7049 4900 c-1 -3 -2 -569 -3 -1257 -1 -831 2 -1253 9 -1254 5 -1
144 -2 308 -3 193 -1 297 2 298 9 0 5 2 204 4 440 1 237 3 434 4 439 1 5 66
-78 145 -185 79 -107 229 -309 333 -449 l189 -255 382 0 c210 0 382 1 382 2 0
2 -339 440 -462 597 -13 16 -91 117 -175 225 l-152 195 72 27 c189 69 314 183
398 362 72 155 86 388 33 577 -86 304 -351 487 -766 526 -85 8 -997 12 -999 4z
m871 -480 c213 -35 313 -136 314 -320 0 -227 -153 -337 -479 -344 l-90 -2 0
335 c-1 185 3 339 8 342 12 8 171 1 247 -11z"/>
</g>
</svg>
