<?xml version="1.0" standalone="no"?>
<!DOCTYPE svg PUBLIC "-//W3C//DTD SVG 20010904//EN"
 "http://www.w3.org/TR/2001/REC-SVG-20010904/DTD/svg10.dtd">
<svg version="1.0" xmlns="http://www.w3.org/2000/svg"
 width="1024.000000pt" height="1024.000000pt" viewBox="0 0 1024.000000 1024.000000"
 preserveAspectRatio="xMidYMid meet">
<metadata>
Created by potrace 1.11, written by Peter Selinger 2001-2013
</metadata>
<g transform="translate(0.000000,1024.000000) scale(0.100000,-0.100000)"
fill="#000000" stroke="none">
<path d="M4979 10236 c-2 -2 -35 -7 -73 -11 -38 -3 -73 -8 -76 -10 -4 -2 -22
-7 -41 -10 -55 -9 -189 -56 -254 -88 -33 -16 -132 -71 -220 -122 -233 -135
-613 -354 -663 -382 -23 -13 -93 -53 -154 -89 -61 -35 -112 -64 -113 -64 -2 0
-39 -21 -82 -46 -43 -26 -94 -56 -113 -67 -19 -10 -289 -165 -598 -344 -310
-178 -652 -375 -760 -437 -808 -463 -806 -462 -918 -573 -181 -182 -319 -420
-391 -680 l-28 -98 -2 -2055 c-2 -2218 -5 -2106 50 -2285 34 -111 45 -137 101
-245 99 -193 209 -332 361 -456 62 -51 126 -89 590 -357 149 -85 401 -230 560
-322 160 -92 306 -177 325 -188 263 -149 651 -373 672 -388 15 -10 29 -19 32
-19 2 0 39 -20 80 -45 42 -25 79 -45 81 -45 3 0 42 -22 86 -50 44 -28 82 -50
83 -50 2 0 113 -64 247 -141 134 -78 269 -156 299 -173 81 -46 273 -156 290
-166 169 -103 328 -173 445 -195 17 -3 55 -10 85 -16 88 -17 353 -18 460 -2
166 24 322 80 471 168 35 21 78 45 94 55 17 9 350 202 742 428 392 226 732
422 755 435 72 40 342 196 358 207 8 5 51 30 95 55 44 25 98 56 120 69 22 12
114 66 205 118 91 52 253 146 360 208 107 62 211 121 230 132 392 223 451 262
554 364 213 213 373 525 413 804 10 72 10 4070 0 4135 -4 28 -13 68 -19 90 -5
22 -11 47 -13 55 -14 69 -99 261 -159 360 -87 146 -218 295 -339 388 -45 35
-177 115 -392 237 -22 12 -111 64 -199 114 -87 50 -162 91 -167 91 -5 0 -9 5
-9 10 0 6 -4 10 -10 10 -5 0 -33 14 -62 31 -29 18 -69 41 -88 52 -19 11 -96
54 -170 97 -74 43 -151 87 -171 98 -20 11 -128 73 -240 137 -214 123 -245 142
-306 176 -21 12 -126 72 -233 134 -107 62 -212 122 -232 134 -71 40 -103 58
-368 211 -146 84 -285 164 -310 178 -25 14 -148 84 -275 157 -126 73 -259 147
-294 165 -67 33 -222 83 -301 96 -25 4 -56 9 -70 11 -33 6 -326 13 -331 9z
m-2601 -2970 c34 -17 91 -79 128 -138 25 -38 251 -384 363 -553 25 -38 49 -71
54 -73 4 -2 7 -8 7 -13 0 -5 22 -42 49 -82 27 -39 131 -196 231 -347 100 -151
185 -276 189 -277 3 -2 6 302 6 675 l0 677 24 48 c35 72 79 101 162 105 59 4
74 1 111 -21 54 -31 86 -86 95 -163 8 -58 8 -1805 0 -1834 -32 -128 -83 -177
-199 -194 -42 -6 -129 9 -169 30 -71 36 -138 128 -494 674 -27 41 -87 134
-134 205 -47 72 -88 135 -91 140 -3 6 -30 48 -61 95 -30 47 -95 145 -143 218
-47 72 -88 132 -90 132 -2 0 -4 -292 -4 -650 0 -557 -3 -658 -16 -703 -26 -90
-92 -139 -186 -140 -88 -1 -144 35 -181 118 l-23 50 0 910 c0 1038 -3 988 79
1064 25 23 57 47 73 53 68 28 159 25 220 -6z m2982 -20 c198 -31 322 -93 419
-211 117 -142 164 -372 120 -591 -59 -289 -269 -452 -630 -490 -31 -3 -167 -6
-303 -7 -135 -1 -247 -4 -247 -7 -1 -3 -3 -142 -4 -310 -1 -168 -5 -331 -9
-362 -18 -143 -147 -225 -282 -181 -70 23 -113 76 -135 163 -13 53 -11 1794 2
1844 23 85 75 134 165 154 45 10 837 8 904 -2z m1465 -5 c78 -26 102 -65 153
-251 33 -120 131 -484 137 -510 5 -20 69 -265 94 -355 10 -38 31 -117 46 -175
15 -58 30 -116 34 -129 5 -19 15 6 44 110 35 127 84 315 112 424 7 28 23 86
35 130 12 44 29 105 36 135 8 30 16 62 18 70 5 19 86 322 90 335 2 6 7 24 11
40 16 61 46 119 73 142 48 41 86 47 277 47 197 -1 239 -10 296 -68 51 -51 51
-55 50 -1021 0 -495 -3 -913 -7 -930 -19 -90 -88 -153 -176 -158 -87 -6 -149
29 -191 108 -22 40 -22 45 -24 715 -2 371 -3 722 -3 780 l-1 105 -183 -725
c-100 -399 -192 -754 -204 -790 -45 -133 -110 -188 -231 -195 -114 -6 -208 59
-251 171 -12 32 -94 345 -182 694 -88 349 -173 685 -188 745 l-28 110 -4 -785
-3 -785 -22 -45 c-21 -42 -75 -90 -112 -98 -115 -25 -207 22 -243 125 -15 44
-17 130 -17 959 -1 983 -2 965 51 1021 23 25 77 52 116 59 15 3 28 7 29 8 10
10 334 -2 368 -13z m-2138 -3022 c261 -47 459 -218 540 -464 21 -65 26 -100
27 -185 1 -144 -27 -191 -129 -223 -86 -27 -123 -29 -556 -29 l-421 0 5 -62
c21 -227 179 -386 385 -386 137 0 243 48 382 173 122 110 117 107 173 107 128
0 175 -96 112 -227 -40 -81 -133 -169 -231 -220 -145 -74 -266 -101 -449 -97
-249 4 -427 73 -570 219 -61 63 -85 95 -120 166 -15 30 -31 62 -35 71 -5 9
-19 54 -32 100 -19 70 -22 109 -22 253 0 146 3 182 22 255 72 264 227 437 465
516 44 14 103 30 131 34 68 11 263 10 323 -1z m1162 1 c45 -12 94 -62 109
-112 9 -26 17 -72 22 -117 0 -2 21 25 46 60 57 80 106 125 164 152 37 17 64
21 145 21 86 -1 110 -5 174 -30 79 -31 143 -79 166 -125 34 -65 4 -170 -60
-208 -53 -33 -85 -34 -181 -6 -138 41 -245 33 -307 -23 -52 -46 -98 -161 -112
-277 -4 -33 -10 -69 -12 -80 -3 -11 -6 -166 -8 -345 -2 -179 -7 -341 -10 -360
-18 -100 -94 -164 -196 -163 -63 1 -106 19 -142 62 -52 63 -52 58 -52 752 l0
645 30 59 c45 88 125 122 224 95z"/>
<path d="M4715 6603 l0 -328 215 1 c279 2 369 22 456 101 142 128 107 422 -59
501 -78 38 -173 50 -399 51 l-214 2 1 -328z"/>
<path d="M4452 3948 c-145 -22 -247 -131 -288 -305 -25 -108 -59 -98 350 -98
l358 0 -6 45 c-13 103 -33 161 -79 228 -67 100 -199 151 -335 130z"/>
</g>
</svg>
