<?xml version="1.0" standalone="no"?>
<!DOCTYPE svg PUBLIC "-//W3C//DTD SVG 20010904//EN"
 "http://www.w3.org/TR/2001/REC-SVG-20010904/DTD/svg10.dtd">
<svg version="1.0" xmlns="http://www.w3.org/2000/svg"
 width="1024.000000pt" height="1024.000000pt" viewBox="0 0 1024.000000 1024.000000"
 preserveAspectRatio="xMidYMid meet">
<metadata>
Created by potrace 1.11, written by Peter Selinger 2001-2013
</metadata>
<g transform="translate(0.000000,1024.000000) scale(0.100000,-0.100000)"
fill="#000000" stroke="none">
<path d="M4858 10235 c-1 -1 -50 -5 -108 -9 -58 -3 -116 -8 -130 -11 -14 -2
-52 -6 -85 -10 -128 -12 -315 -42 -445 -70 -41 -9 -86 -18 -100 -21 -145 -28
-454 -122 -720 -219 -300 -109 -748 -347 -1055 -561 -116 -80 -356 -262 -375
-283 -3 -4 -34 -31 -70 -61 -147 -124 -392 -368 -535 -536 -196 -228 -441
-576 -568 -804 -167 -302 -289 -572 -387 -855 -69 -202 -140 -458 -174 -635
-2 -14 -9 -47 -15 -75 -6 -27 -13 -66 -16 -85 -12 -77 -34 -238 -40 -285 -3
-27 -8 -63 -10 -80 -26 -192 -26 -858 0 -1016 2 -13 6 -51 10 -84 3 -33 8 -76
10 -95 11 -75 27 -176 31 -200 3 -14 7 -38 9 -55 6 -39 13 -73 19 -93 3 -9 8
-33 11 -52 6 -36 59 -251 75 -305 34 -113 103 -333 110 -350 5 -11 29 -72 54
-135 327 -844 895 -1603 1631 -2176 122 -95 482 -344 497 -344 3 0 43 -23 89
-51 133 -81 489 -252 669 -322 151 -59 244 -91 420 -145 99 -31 355 -95 423
-106 15 -3 35 -7 45 -10 15 -4 52 -11 117 -21 11 -2 49 -8 85 -14 75 -12 122
-18 200 -26 30 -4 71 -8 90 -10 220 -26 874 -26 1009 0 9 2 47 6 83 9 37 4 75
8 85 10 10 2 41 7 68 10 42 6 118 19 235 40 107 20 311 68 423 101 31 9 58 16
59 15 6 -2 301 101 408 143 499 196 949 461 1385 815 171 138 450 411 611 597
163 187 347 435 477 643 42 67 77 124 77 127 0 2 20 37 44 77 83 142 208 401
291 608 124 309 251 758 290 1027 4 21 10 63 15 93 9 54 14 85 25 185 23 199
30 335 30 600 0 226 -8 428 -19 495 -3 14 -7 52 -10 85 -8 77 -15 133 -21 165
-3 14 -7 43 -11 65 -16 117 -45 257 -85 418 -71 285 -144 502 -280 827 -39 94
-223 450 -289 560 -131 217 -287 438 -457 645 -209 255 -496 535 -766 748
-245 194 -502 363 -762 502 -49 27 -97 52 -105 56 -33 18 -270 129 -276 129
-3 0 -41 15 -84 34 -334 147 -838 283 -1270 341 -25 3 -56 8 -70 10 -14 2 -61
7 -105 10 -44 4 -98 9 -120 12 -47 4 -642 13 -647 8z m2772 -5115 l0 -2510
-627 2 -628 3 0 1878 c0 1245 -3 1877 -10 1878 -5 1 -288 2 -627 3 l-618 1 0
-1882 0 -1883 -1255 0 -1255 0 0 2510 0 2510 2510 0 2510 0 0 -2510z"/>
</g>
</svg>
